<svg xmlns="http://www.w3.org/2000/svg" viewBox="0 0 1100 540" role="img" aria-label="Deux booléens : quatre combinaisons"><rect width="1100" height="540" rx="22" fill="#fff"/><path d="M 18,28 Q 520,17 1080,28 L 1076,513 Q 550,520 22,513 Z" stroke="#adc3c7" stroke-width="2" fill="none" stroke-linecap="round" stroke-linejoin="round"/><text x="550" y="75" text-anchor="middle" fill="#142c34" font-family="Inter,Arial,sans-serif" font-size="34" font-weight="700">Deux booléens : quatre combinaisons</text><path d="M 305,94 Q 550,103 795,94" stroke="#62c6c7" stroke-width="7" fill="none" stroke-linecap="round" stroke-linejoin="round"/><rect x="50" y="190" width="235" height="130" rx="15" fill="#e8f8f8"/><path d="M 60,192 Q 167.5,187 275,191 Q 287,196 285,206 L 283,308 Q 285,321 273,320 L 63,322 Q 49,320 51,308 L 50,206 Q 50,190 60,192" stroke="#142c34" stroke-width="3" fill="none" stroke-linecap="round" stroke-linejoin="round"/><text x="167.5" y="250.0" text-anchor="middle" fill="#142c34" font-family="Inter,Arial,sans-serif" font-size="25" font-weight="700">A : false</text><text x="167.5" y="284.0" text-anchor="middle" fill="#142c34" font-family="Inter,Arial,sans-serif" font-size="17" font-weight="450">B : false</text><rect x="305" y="190" width="235" height="130" rx="15" fill="#e8f8f8"/><path d="M 315,192 Q 422.5,187 530,191 Q 542,196 540,206 L 538,308 Q 540,321 528,320 L 318,322 Q 304,320 306,308 L 305,206 Q 305,190 315,192" stroke="#142c34" stroke-width="3" fill="none" stroke-linecap="round" stroke-linejoin="round"/><text x="422.5" y="250.0" text-anchor="middle" fill="#142c34" font-family="Inter,Arial,sans-serif" font-size="25" font-weight="700">A : false</text><text x="422.5" y="284.0" text-anchor="middle" fill="#142c34" font-family="Inter,Arial,sans-serif" font-size="17" font-weight="450">B : true</text><rect x="560" y="190" width="235" height="130" rx="15" fill="#e8f8f8"/><path d="M 570,192 Q 677.5,187 785,191 Q 797,196 795,206 L 793,308 Q 795,321 783,320 L 573,322 Q 559,320 561,308 L 560,206 Q 560,190 570,192" stroke="#142c34" stroke-width="3" fill="none" stroke-linecap="round" stroke-linejoin="round"/><text x="677.5" y="250.0" text-anchor="middle" fill="#142c34" font-family="Inter,Arial,sans-serif" font-size="25" font-weight="700">A : true</text><text x="677.5" y="284.0" text-anchor="middle" fill="#142c34" font-family="Inter,Arial,sans-serif" font-size="17" font-weight="450">B : false</text><rect x="815" y="190" width="235" height="130" rx="15" fill="#e8f8f8"/><path d="M 825,192 Q 932.5,187 1040,191 Q 1052,196 1050,206 L 1048,308 Q 1050,321 1038,320 L 828,322 Q 814,320 816,308 L 815,206 Q 815,190 825,192" stroke="#142c34" stroke-width="3" fill="none" stroke-linecap="round" stroke-linejoin="round"/><text x="932.5" y="250.0" text-anchor="middle" fill="#142c34" font-family="Inter,Arial,sans-serif" font-size="25" font-weight="700">A : true</text><text x="932.5" y="284.0" text-anchor="middle" fill="#142c34" font-family="Inter,Arial,sans-serif" font-size="17" font-weight="450">B : true</text><text x="550" y="479" text-anchor="middle" fill="#142c34" font-family="Inter,Arial,sans-serif" font-size="22" font-weight="700">Un test réussi ne suffit pas. Couvre aussi les cas qui refusent.</text></svg>